<mxfile host="app.diagrams.net" modified="2021-12-20T17:10:28.702Z" agent="5.0 (Windows NT 10.0; Win64; x64) AppleWebKit/537.36 (KHTML, like Gecko) Chrome/96.0.4664.110 Safari/537.36" etag="q4AgbacfGMVQK6OWBlZ-" version="16.0.0" type="github">
  <diagram id="hCC37PdxLk1hiNzJ39LI" name="Page-1">
    <mxGraphModel dx="1422" dy="754" grid="1" gridSize="10" guides="1" tooltips="1" connect="1" arrows="1" fold="1" page="1" pageScale="1" pageWidth="850" pageHeight="1100" math="0" shadow="0">
      <root>
        <mxCell id="0" />
        <mxCell id="1" parent="0" />
        <mxCell id="mb9BTXo8A0_jGZtF6IZj-1" value="" style="rounded=0;whiteSpace=wrap;html=1;" vertex="1" parent="1">
          <mxGeometry x="410" y="220" width="120" height="60" as="geometry" />
        </mxCell>
        <mxCell id="mb9BTXo8A0_jGZtF6IZj-2" value="" style="whiteSpace=wrap;html=1;aspect=fixed;" vertex="1" parent="1">
          <mxGeometry x="610" y="430" width="80" height="80" as="geometry" />
        </mxCell>
        <mxCell id="mb9BTXo8A0_jGZtF6IZj-3" value="" style="shape=document;whiteSpace=wrap;html=1;boundedLbl=1;" vertex="1" parent="1">
          <mxGeometry x="240" y="370" width="120" height="80" as="geometry" />
        </mxCell>
      </root>
    </mxGraphModel>
  </diagram>
</mxfile>
